<svg xmlns="http://www.w3.org/2000/svg" width="680" height="90" viewBox="0 0 680 90">
  <defs>
    <pattern id="f-hex" width="24" height="20.8" patternUnits="userSpaceOnUse">
      <polygon points="12,0 24,6 24,15 12,21 0,15 0,6" fill="none" stroke="#1E4A28" stroke-width="0.4" opacity="0.45"/>
    </pattern>
  </defs>
  <rect width="680" height="90" fill="#060F08"/>
  <rect width="680" height="90" fill="url(#f-hex)"/>
  <rect x="0" y="0" width="680" height="2" fill="#27AE60" opacity="0.85"/>
  <rect x="0" y="88" width="680" height="2" fill="#27AE60" opacity="0.85"/>
  <line x1="40" y1="20" x2="600" y2="20" stroke="#1E4A28" stroke-width="0.5" opacity="0.5"/>
  <line x1="40" y1="70" x2="600" y2="70" stroke="#1E4A28" stroke-width="0.5" opacity="0.5"/>
  <circle cx="40" cy="20" r="2.5" fill="#27AE60" opacity="0.45"/>
  <circle cx="640" cy="20" r="2.5" fill="#27AE60" opacity="0.45"/>
  <circle cx="40" cy="70" r="2.5" fill="#27AE60" opacity="0.45"/>
  <circle cx="640" cy="70" r="2.5" fill="#27AE60" opacity="0.45"/>
  <line x1="600" y1="20" x2="640" y2="20" stroke="#1E4A28" stroke-width="0.5" opacity="0.5"/>
  <line x1="600" y1="70" x2="640" y2="70" stroke="#1E4A28" stroke-width="0.5" opacity="0.5"/>
  <text x="340" y="43" text-anchor="middle" font-family="Georgia, serif" font-size="24" fill="#58D68D" letter-spacing="4" font-weight="bold">FEATS &amp; ORIGINS</text>
  <text x="340" y="61" text-anchor="middle" font-family="Georgia, serif" font-size="9" fill="#1E5E34" letter-spacing="2" opacity="0.9">80+ OPTIONS  ·  PHB  ·  XANATHAR'S  ·  TASHA'S  ·  FORGOTTEN REALMS  ·  LORD OF THE RINGS</text>
</svg>
